<?xml version="1.0" standalone="no"?>
<!DOCTYPE svg PUBLIC "-//W3C//DTD SVG 1.1//EN" "http://www.w3.org/Graphics/SVG/1.1/DTD/svg11.dtd">
<svg xmlns="http://www.w3.org/2000/svg" xmlns:xlink="http://www.w3.org/1999/xlink" id="Layer_2" viewBox="0 0 2733.66 1708.54" width="2733.659912109375" height="1708.5400390625"><defs><style>.cls-1{clip-path:url(#clippath);}.cls-2{fill:none;}.cls-2,.cls-3{stroke-width:0px;}.cls-3{fill:#55c7f3;}</style><clipPath id="clippath"><rect class="cls-2" width="2733.66" height="1708.54"/></clipPath></defs><g id="art_here"><g class="cls-1"><circle class="cls-3" cx="2418.74" cy="1714" r="9.29"/><circle class="cls-3" cx="2294.91" cy="1714" r="6.56"/><circle class="cls-3" cx="2046.96" cy="1714" r="11.48"/><circle class="cls-3" cx="1861.35" cy="1714" r="11.75"/><circle class="cls-3" cx="1799.3" cy="1714" r="10.66"/><circle class="cls-3" cx="2263.74" cy="1660.7" r="10.39"/><circle class="cls-3" cx="2078.13" cy="1660.7" r="4.1"/><circle class="cls-3" cx="1954.02" cy="1660.7" r="4.65"/><circle class="cls-3" cx="1892.24" cy="1660.7" r="8.75"/><circle class="cls-3" cx="1768.4" cy="1660.7" r="7.93"/><circle class="cls-3" cx="1396.63" cy="1660.7" r="7.11"/><circle class="cls-3" cx="1272.79" cy="1660.7" r=".82"/><circle class="cls-3" cx="1211.01" cy="1660.7" r="6.29"/><circle class="cls-3" cx="2728.19" cy="1607.39" r="8.47"/><circle class="cls-3" cx="2356.69" cy="1607.39" r="12.03"/><circle class="cls-3" cx="2232.85" cy="1607.39" r="8.75"/><circle class="cls-3" cx="2109.02" cy="1607.39" r="12.03"/><circle class="cls-3" cx="2046.96" cy="1607.39" r="3.55"/><circle class="cls-3" cx="1985.18" cy="1607.39" r="10.93"/><circle class="cls-3" cx="1923.13" cy="1607.39" r="1.09"/><circle class="cls-3" cx="1613.41" cy="1607.39" r="2.73"/><circle class="cls-3" cx="1551.63" cy="1607.39" r="3.83"/><circle class="cls-3" cx="1241.9" cy="1607.39" r="4.92"/><circle class="cls-3" cx="1118.07" cy="1607.39" r="12.85"/><circle class="cls-3" cx="2697.3" cy="1553.81" r=".82"/><circle class="cls-3" cx="2635.52" cy="1553.81" r=".82"/><circle class="cls-3" cx="2387.58" cy="1553.81" r="1.09"/><circle class="cls-3" cx="2263.74" cy="1553.81" r="12.57"/><circle class="cls-3" cx="2201.96" cy="1553.81" r="6.01"/><circle class="cls-3" cx="2139.91" cy="1553.81" r="1.91"/><circle class="cls-3" cx="2016.07" cy="1553.81" r="6.83"/><circle class="cls-3" cx="1954.02" cy="1553.81" r="4.37"/><circle class="cls-3" cx="1768.4" cy="1553.81" r="8.47"/><circle class="cls-3" cx="1644.57" cy="1553.81" r="4.92"/><circle class="cls-3" cx="1520.74" cy="1553.81" r="4.65"/><circle class="cls-3" cx="1458.68" cy="1553.81" r="2.46"/><circle class="cls-3" cx="1334.85" cy="1553.81" r="3.01"/><circle class="cls-3" cx="1148.96" cy="1553.81" r="13.67"/><circle class="cls-3" cx="1087.18" cy="1553.81" r="1.64"/><circle class="cls-3" cx="1025.12" cy="1553.81" r="2.46"/><circle class="cls-3" cx="901.29" cy="1553.81" r="10.39"/><circle class="cls-3" cx="839.23" cy="1553.81" r="12.57"/><circle class="cls-3" cx="777.45" cy="1553.81" r="15.04"/><circle class="cls-3" cx="343.89" cy="1553.81" r="6.01"/><circle class="cls-3" cx="2728.19" cy="1500.51" r="1.91"/><circle class="cls-3" cx="2604.36" cy="1500.51" r="10.93"/><circle class="cls-3" cx="2542.58" cy="1500.51" r="3.55"/><circle class="cls-3" cx="2356.69" cy="1500.51" r="9.02"/><circle class="cls-3" cx="2294.91" cy="1500.51" r="7.11"/><circle class="cls-3" cx="2232.85" cy="1500.51" r="10.11"/><circle class="cls-3" cx="2046.96" cy="1500.51" r="5.47"/><circle class="cls-3" cx="1985.18" cy="1500.51" r="12.85"/><circle class="cls-3" cx="1799.3" cy="1500.51" r="1.09"/><circle class="cls-3" cx="1675.46" cy="1500.51" r="13.67"/><circle class="cls-3" cx="1613.41" cy="1500.51" r="10.66"/><circle class="cls-3" cx="1365.74" cy="1500.51" r="4.1"/><circle class="cls-3" cx="1179.85" cy="1500.51" r="5.74"/><circle class="cls-3" cx="1118.07" cy="1500.51" r="9.29"/><circle class="cls-3" cx="1056.01" cy="1500.51" r="13.12"/><circle class="cls-3" cx="932.18" cy="1500.51" r="5.47"/><circle class="cls-3" cx="870.4" cy="1500.51" r="15.04"/><circle class="cls-3" cx="746.29" cy="1500.51" r="9.29"/><circle class="cls-3" cx="2325.8" cy="1447.2" r="8.75"/><circle class="cls-3" cx="2263.74" cy="1447.2" r="4.92"/><circle class="cls-3" cx="2201.96" cy="1447.2" r="6.29"/><circle class="cls-3" cx="2139.91" cy="1447.2" r="7.11"/><circle class="cls-3" cx="2078.13" cy="1447.2" r="3.28"/><circle class="cls-3" cx="2016.07" cy="1447.2" r="11.21"/><circle class="cls-3" cx="1954.02" cy="1447.2" r="3.83"/><circle class="cls-3" cx="1892.24" cy="1447.2" r="12.85"/><circle class="cls-3" cx="1830.19" cy="1447.2" r="4.92"/><circle class="cls-3" cx="1706.35" cy="1447.2" r="10.66"/><circle class="cls-3" cx="1644.57" cy="1447.2" r="9.57"/><circle class="cls-3" cx="1582.52" cy="1447.2" r="1.91"/><circle class="cls-3" cx="1520.74" cy="1447.2" r="9.29"/><circle class="cls-3" cx="1458.68" cy="1447.2" r="6.01"/><circle class="cls-3" cx="1396.63" cy="1447.2" r="7.65"/><circle class="cls-3" cx="1334.85" cy="1447.2" r="1.09"/><circle class="cls-3" cx="1211.01" cy="1447.2" r="13.39"/><circle class="cls-3" cx="1148.96" cy="1447.2" r="7.65"/><circle class="cls-3" cx="1087.18" cy="1447.2" r=".82"/><circle class="cls-3" cx="1025.12" cy="1447.2" r="7.65"/><circle class="cls-3" cx="901.29" cy="1447.2" r="7.38"/><circle class="cls-3" cx="777.45" cy="1447.2" r="12.85"/><circle class="cls-3" cx="715.4" cy="1447.2" r="12.85"/><circle class="cls-3" cx="343.89" cy="1447.2" r=".82"/><circle class="cls-3" cx="158.01" cy="1447.2" r="3.28"/><circle class="cls-3" cx="2604.36" cy="1393.62" r="1.91"/><circle class="cls-3" cx="2356.69" cy="1393.62" r="9.29"/><circle class="cls-3" cx="2294.91" cy="1393.62" r="13.12"/><circle class="cls-3" cx="2232.85" cy="1393.62" r="10.11"/><circle class="cls-3" cx="2170.8" cy="1393.62" r="14.22"/><circle class="cls-3" cx="2109.02" cy="1393.62" r="8.2"/><circle class="cls-3" cx="2046.96" cy="1393.62" r="13.67"/><circle class="cls-3" cx="1985.18" cy="1393.62" r="15.31"/><circle class="cls-3" cx="1923.13" cy="1393.62" r="16.4"/><circle class="cls-3" cx="1861.35" cy="1393.62" r="5.74"/><circle class="cls-3" cx="1799.3" cy="1393.62" r="1.37"/><circle class="cls-3" cx="1675.46" cy="1393.62" r="15.58"/><circle class="cls-3" cx="1613.41" cy="1393.62" r="18.86"/><circle class="cls-3" cx="1551.63" cy="1393.62" r="9.84"/><circle class="cls-3" cx="1489.57" cy="1393.62" r="9.84"/><circle class="cls-3" cx="1427.79" cy="1393.62" r="3.55"/><circle class="cls-3" cx="1365.74" cy="1393.62" r="3.01"/><circle class="cls-3" cx="1241.9" cy="1393.62" r="9.02"/><circle class="cls-3" cx="1179.85" cy="1393.62" r="7.38"/><circle class="cls-3" cx="1056.01" cy="1393.62" r="9.84"/><circle class="cls-3" cx="994.23" cy="1393.62" r="8.75"/><circle class="cls-3" cx="932.18" cy="1393.62" r="14.49"/><circle class="cls-3" cx="808.34" cy="1393.62" r="2.19"/><circle class="cls-3" cx="746.29" cy="1393.62" r="4.65"/><circle class="cls-3" cx="313" cy="1393.62" r="1.91"/><circle class="cls-3" cx="2511.69" cy="1340.31" r="2.19"/><circle class="cls-3" cx="2449.63" cy="1340.31" r="8.75"/><circle class="cls-3" cx="2387.58" cy="1340.31" r="13.12"/><circle class="cls-3" cx="2325.8" cy="1340.31" r="4.1"/><circle class="cls-3" cx="2263.74" cy="1340.31" r="4.92"/><circle class="cls-3" cx="2201.96" cy="1340.31" r="6.01"/><circle class="cls-3" cx="2139.91" cy="1340.31" r="3.55"/><circle class="cls-3" cx="2078.13" cy="1340.31" r="15.58"/><circle class="cls-3" cx="2016.07" cy="1340.31" r="18.04"/><circle class="cls-3" cx="1954.02" cy="1340.31" r="7.38"/><circle class="cls-3" cx="1892.24" cy="1340.31" r="7.65"/><circle class="cls-3" cx="1830.19" cy="1340.31" r="15.04"/><circle class="cls-3" cx="1768.4" cy="1340.31" r="14.22"/><circle class="cls-3" cx="1644.57" cy="1340.31" r="18.86"/><circle class="cls-3" cx="1520.74" cy="1340.31" r="6.29"/><circle class="cls-3" cx="1458.68" cy="1340.31" r="4.65"/><circle class="cls-3" cx="1396.63" cy="1340.31" r="15.58"/><circle class="cls-3" cx="1334.85" cy="1340.31" r="10.11"/><circle class="cls-3" cx="1272.79" cy="1340.31" r="9.29"/><circle class="cls-3" cx="963.07" cy="1340.31" r="10.11"/><circle class="cls-3" cx="839.23" cy="1340.31" r="7.93"/><circle class="cls-3" cx="777.45" cy="1340.31" r="12.03"/><circle class="cls-3" cx="715.4" cy="1340.31" r="13.39"/><circle class="cls-3" cx="220.06" cy="1340.31" r="3.83"/><circle class="cls-3" cx="158.01" cy="1340.31" r="2.46"/><circle class="cls-3" cx="34.17" cy="1340.31" r="6.29"/><circle class="cls-3" cx="2728.19" cy="1287.01" r="5.19"/><circle class="cls-3" cx="2604.36" cy="1287.01" r="12.57"/><circle class="cls-3" cx="2480.52" cy="1287.01" r="10.39"/><circle class="cls-3" cx="2356.69" cy="1287.01" r="15.04"/><circle class="cls-3" cx="2294.91" cy="1287.01" r="12.3"/><circle class="cls-3" cx="2170.8" cy="1287.01" r="12.3"/><circle class="cls-3" cx="2109.02" cy="1287.01" r="21.32"/><circle class="cls-3" cx="1985.18" cy="1287.01" r="3.55"/><circle class="cls-3" cx="1923.13" cy="1287.01" r="17.77"/><circle class="cls-3" cx="1861.35" cy="1287.01" r="12.03"/><circle class="cls-3" cx="1799.3" cy="1287.01" r="13.94"/><circle class="cls-3" cx="1737.24" cy="1287.01" r="13.94"/><circle class="cls-3" cx="1675.46" cy="1287.01" r="13.12"/><circle class="cls-3" cx="1613.41" cy="1287.01" r="8.47"/><circle class="cls-3" cx="1551.63" cy="1287.01" r="8.47"/><circle class="cls-3" cx="1489.57" cy="1287.01" r="21.6"/><circle class="cls-3" cx="1427.79" cy="1287.01" r="12.03"/><circle class="cls-3" cx="1241.9" cy="1287.01" r="10.66"/><circle class="cls-3" cx="994.23" cy="1287.01" r="10.93"/><circle class="cls-3" cx="870.4" cy="1287.01" r="3.01"/><circle class="cls-3" cx="808.34" cy="1287.01" r="14.22"/><circle class="cls-3" cx="684.51" cy="1287.01" r="11.21"/><circle class="cls-3" cx="498.62" cy="1287.01" r="6.01"/><circle class="cls-3" cx="436.84" cy="1287.01" r="9.02"/><circle class="cls-3" cx="313" cy="1287.01" r="3.01"/><circle class="cls-3" cx="127.12" cy="1287.01" r="4.37"/><circle class="cls-3" cx="65.06" cy="1287.01" r="6.83"/><circle class="cls-3" cx="3.28" cy="1287.01" r="5.47"/><circle class="cls-3" cx="2697.3" cy="1233.43" r="3.55"/><circle class="cls-3" cx="2635.52" cy="1233.43" r="14.76"/><circle class="cls-3" cx="2573.47" cy="1233.43" r="14.22"/><circle class="cls-3" cx="2511.69" cy="1233.43" r="2.19"/><circle class="cls-3" cx="2449.63" cy="1233.43" r="10.11"/><circle class="cls-3" cx="2387.58" cy="1233.43" r="7.11"/><circle class="cls-3" cx="2325.8" cy="1233.43" r="7.65"/><circle class="cls-3" cx="2263.74" cy="1233.43" r="10.66"/><circle class="cls-3" cx="2201.96" cy="1233.43" r="16.68"/><circle class="cls-3" cx="2139.91" cy="1233.43" r="12.57"/><circle class="cls-3" cx="2078.13" cy="1233.43" r="8.2"/><circle class="cls-3" cx="2016.07" cy="1233.43" r="15.58"/><circle class="cls-3" cx="1954.02" cy="1233.43" r="8.47"/><circle class="cls-3" cx="1892.24" cy="1233.43" r="8.47"/><circle class="cls-3" cx="1830.19" cy="1233.43" r="13.12"/><circle class="cls-3" cx="1768.4" cy="1233.43" r="14.49"/><circle class="cls-3" cx="1706.35" cy="1233.43" r="13.94"/><circle class="cls-3" cx="1644.57" cy="1233.43" r="1.64"/><circle class="cls-3" cx="1582.52" cy="1233.43" r="16.13"/><circle class="cls-3" cx="1520.74" cy="1233.43" r="6.56"/><circle class="cls-3" cx="1458.68" cy="1233.43" r="16.68"/><circle class="cls-3" cx="1334.85" cy="1233.43" r="7.65"/><circle class="cls-3" cx="1087.18" cy="1233.43" r="7.38"/><circle class="cls-3" cx="1025.12" cy="1233.43" r="21.6"/><circle class="cls-3" cx="963.07" cy="1233.43" r="18.59"/><circle class="cls-3" cx="901.29" cy="1233.43" r="13.94"/><circle class="cls-3" cx="839.23" cy="1233.43" r="21.05"/><circle class="cls-3" cx="715.4" cy="1233.43" r="3.55"/><circle class="cls-3" cx="653.62" cy="1233.43" r="9.84"/><circle class="cls-3" cx="467.73" cy="1233.43" r="2.73"/><circle class="cls-3" cx="405.68" cy="1233.43" r="4.1"/><circle class="cls-3" cx="343.89" cy="1233.43" r="4.37"/><circle class="cls-3" cx="220.06" cy="1233.43" r="1.09"/><circle class="cls-3" cx="158.01" cy="1233.43" r="3.83"/><circle class="cls-3" cx="34.17" cy="1233.43" r="2.46"/><circle class="cls-3" cx="2728.19" cy="1180.12" r="8.2"/><circle class="cls-3" cx="2666.41" cy="1180.12" r="10.93"/><circle class="cls-3" cx="2604.36" cy="1180.12" r="17.5"/><circle class="cls-3" cx="2542.58" cy="1180.12" r="9.29"/><circle class="cls-3" cx="2480.52" cy="1180.12" r="8.2"/><circle class="cls-3" cx="2418.74" cy="1180.12" r="14.76"/><circle class="cls-3" cx="2356.69" cy="1180.12" r="15.86"/><circle class="cls-3" cx="2294.91" cy="1180.12" r="15.58"/><circle class="cls-3" cx="2232.85" cy="1180.12" r="16.95"/><circle class="cls-3" cx="2170.8" cy="1180.12" r="2.19"/><circle class="cls-3" cx="2109.02" cy="1180.12" r="20.23"/><circle class="cls-3" cx="1985.18" cy="1180.12" r="14.76"/><circle class="cls-3" cx="1923.13" cy="1180.12" r="12.85"/><circle class="cls-3" cx="1861.35" cy="1180.12" r="14.76"/><circle class="cls-3" cx="1799.3" cy="1180.12" r="12.03"/><circle class="cls-3" cx="1675.46" cy="1180.12" r="12.03"/><circle class="cls-3" cx="1613.41" cy="1180.12" r="15.04"/><circle class="cls-3" cx="1551.63" cy="1180.12" r="11.75"/><circle class="cls-3" cx="1489.57" cy="1180.12" r="9.84"/><circle class="cls-3" cx="1365.74" cy="1180.12" r="16.4"/><circle class="cls-3" cx="1303.96" cy="1180.12" r="19.68"/><circle class="cls-3" cx="1241.9" cy="1180.12" r="10.93"/><circle class="cls-3" cx="1179.85" cy="1180.12" r="18.59"/><circle class="cls-3" cx="1118.07" cy="1180.12" r="15.86"/><circle class="cls-3" cx="1056.01" cy="1180.12" r="15.04"/><circle class="cls-3" cx="994.23" cy="1180.12" r="15.86"/><circle class="cls-3" cx="932.18" cy="1180.12" r="16.68"/><circle class="cls-3" cx="870.4" cy="1180.12" r="20.78"/><circle class="cls-3" cx="808.34" cy="1180.12" r="22.69"/><circle class="cls-3" cx="746.29" cy="1180.12" r="5.47"/><circle class="cls-3" cx="684.51" cy="1180.12" r="13.94"/><circle class="cls-3" cx="436.84" cy="1180.12" r="19.41"/><circle class="cls-3" cx="374.78" cy="1180.12" r="8.2"/><circle class="cls-3" cx="250.95" cy="1180.12" r="15.04"/><circle class="cls-3" cx="188.9" cy="1180.12" r="2.73"/><circle class="cls-3" cx="65.06" cy="1180.12" r="6.01"/><circle class="cls-3" cx="3.28" cy="1180.12" r="8.75"/><circle class="cls-3" cx="2697.3" cy="1126.81" r="10.11"/><circle class="cls-3" cx="2635.52" cy="1126.81" r="1.09"/><circle class="cls-3" cx="2573.47" cy="1126.81" r="12.57"/><circle class="cls-3" cx="2511.69" cy="1126.81" r="6.01"/><circle class="cls-3" cx="2449.63" cy="1126.81" r="14.22"/><circle class="cls-3" cx="2325.8" cy="1126.81" r="11.48"/><circle class="cls-3" cx="2263.74" cy="1126.81" r="16.13"/><circle class="cls-3" cx="2201.96" cy="1126.81" r="18.86"/><circle class="cls-3" cx="2139.91" cy="1126.81" r="8.47"/><circle class="cls-3" cx="2078.13" cy="1126.81" r="10.66"/><circle class="cls-3" cx="2016.07" cy="1126.81" r="2.73"/><circle class="cls-3" cx="1954.02" cy="1126.81" r="3.55"/><circle class="cls-3" cx="1892.24" cy="1126.81" r="1.37"/><circle class="cls-3" cx="1830.19" cy="1126.81" r="14.49"/><circle class="cls-3" cx="1768.4" cy="1126.81" r="12.57"/><circle class="cls-3" cx="1706.35" cy="1126.81" r="17.77"/><circle class="cls-3" cx="1582.52" cy="1126.81" r="10.11"/><circle class="cls-3" cx="1520.74" cy="1126.81" r="18.86"/><circle class="cls-3" cx="1458.68" cy="1126.81" r="2.46"/><circle class="cls-3" cx="1396.63" cy="1126.81" r="8.75"/><circle class="cls-3" cx="1334.85" cy="1126.81" r="2.19"/><circle class="cls-3" cx="1272.79" cy="1126.81" r="22.96"/><circle class="cls-3" cx="1211.01" cy="1126.81" r="18.86"/><circle class="cls-3" cx="1148.96" cy="1126.81" r="18.59"/><circle class="cls-3" cx="1087.18" cy="1126.81" r="14.49"/><circle class="cls-3" cx="963.07" cy="1126.81" r="23.78"/><circle class="cls-3" cx="901.29" cy="1126.81" r="18.04"/><circle class="cls-3" cx="839.23" cy="1126.81" r="16.68"/><circle class="cls-3" cx="777.45" cy="1126.81" r="10.93"/><circle class="cls-3" cx="653.62" cy="1126.81" r="12.3"/><circle class="cls-3" cx="591.56" cy="1126.81" r="17.77"/><circle class="cls-3" cx="529.51" cy="1126.81" r="10.11"/><circle class="cls-3" cx="467.73" cy="1126.81" r="10.93"/><circle class="cls-3" cx="405.68" cy="1126.81" r="1.64"/><circle class="cls-3" cx="343.89" cy="1126.81" r="13.12"/><circle class="cls-3" cx="220.06" cy="1126.81" r="4.1"/><circle class="cls-3" cx="96.22" cy="1126.81" r="10.66"/><circle class="cls-3" cx="2728.19" cy="1073.24" r="12.03"/><circle class="cls-3" cx="2666.41" cy="1073.24" r="12.57"/><circle class="cls-3" cx="2604.36" cy="1073.24" r="10.66"/><circle class="cls-3" cx="2542.58" cy="1073.24" r="16.68"/><circle class="cls-3" cx="2480.52" cy="1073.24" r="8.2"/><circle class="cls-3" cx="2418.74" cy="1073.24" r="18.59"/><circle class="cls-3" cx="2356.69" cy="1073.24" r="15.58"/><circle class="cls-3" cx="2294.91" cy="1073.24" r="3.55"/><circle class="cls-3" cx="2232.85" cy="1073.24" r="17.77"/><circle class="cls-3" cx="2170.8" cy="1073.24" r="16.13"/><circle class="cls-3" cx="2109.02" cy="1073.24" r="15.58"/><circle class="cls-3" cx="2046.96" cy="1073.24" r="19.14"/><circle class="cls-3" cx="1985.18" cy="1073.24" r="18.59"/><circle class="cls-3" cx="1923.13" cy="1073.24" r="11.21"/><circle class="cls-3" cx="1861.35" cy="1073.24" r="3.01"/><circle class="cls-3" cx="1799.3" cy="1073.24" r="7.38"/><circle class="cls-3" cx="1737.24" cy="1073.24" r="18.04"/><circle class="cls-3" cx="1675.46" cy="1073.24" r="13.39"/><circle class="cls-3" cx="1613.41" cy="1073.24" r="10.11"/><circle class="cls-3" cx="1551.63" cy="1073.24" r="17.77"/><circle class="cls-3" cx="1489.57" cy="1073.24" r="21.05"/><circle class="cls-3" cx="1427.79" cy="1073.24" r="11.48"/><circle class="cls-3" cx="1365.74" cy="1073.24" r="14.76"/><circle class="cls-3" cx="1303.96" cy="1073.24" r="15.04"/><circle class="cls-3" cx="1179.85" cy="1073.24" r="19.96"/><circle class="cls-3" cx="1118.07" cy="1073.24" r="9.29"/><circle class="cls-3" cx="1056.01" cy="1073.24" r="9.02"/><circle class="cls-3" cx="994.23" cy="1073.24" r="20.78"/><circle class="cls-3" cx="932.18" cy="1073.24" r="16.68"/><circle class="cls-3" cx="870.4" cy="1073.24" r="1.37"/><circle class="cls-3" cx="808.34" cy="1073.24" r="17.22"/><circle class="cls-3" cx="684.51" cy="1073.24" r="22.14"/><circle class="cls-3" cx="622.45" cy="1073.24" r="14.22"/><circle class="cls-3" cx="560.67" cy="1073.24" r="6.01"/><circle class="cls-3" cx="498.62" cy="1073.24" r="12.03"/><circle class="cls-3" cx="436.84" cy="1073.24" r="1.91"/><circle class="cls-3" cx="374.78" cy="1073.24" r="7.65"/><circle class="cls-3" cx="250.95" cy="1073.24" r="17.5"/><circle class="cls-3" cx="127.12" cy="1073.24" r="1.37"/><circle class="cls-3" cx="65.06" cy="1073.24" r="13.39"/><circle class="cls-3" cx="3.28" cy="1073.24" r="5.74"/><circle class="cls-3" cx="2697.3" cy="1019.93" r="15.04"/><circle class="cls-3" cx="2635.52" cy="1019.93" r="16.68"/><circle class="cls-3" cx="2573.47" cy="1019.93" r="17.22"/><circle class="cls-3" cx="2511.69" cy="1019.93" r="12.57"/><circle class="cls-3" cx="2449.63" cy="1019.93" r="17.77"/><circle class="cls-3" cx="2387.58" cy="1019.93" r="13.12"/><circle class="cls-3" cx="2325.8" cy="1019.93" r="21.87"/><circle class="cls-3" cx="2263.74" cy="1019.93" r="15.58"/><circle class="cls-3" cx="2201.96" cy="1019.93" r="18.32"/><circle class="cls-3" cx="2078.13" cy="1019.93" r="20.78"/><circle class="cls-3" cx="2016.07" cy="1019.93" r="2.46"/><circle class="cls-3" cx="1892.24" cy="1019.93" r="20.78"/><circle class="cls-3" cx="1830.19" cy="1019.93" r="13.94"/><circle class="cls-3" cx="1768.4" cy="1019.93" r="13.67"/><circle class="cls-3" cx="1706.35" cy="1019.93" r="3.55"/><circle class="cls-3" cx="1644.57" cy="1019.93" r="15.58"/><circle class="cls-3" cx="1582.52" cy="1019.93" r="10.66"/><circle class="cls-3" cx="1520.74" cy="1019.93" r="14.76"/><circle class="cls-3" cx="1458.68" cy="1019.93" r="14.76"/><circle class="cls-3" cx="1396.63" cy="1019.93" r="20.78"/><circle class="cls-3" cx="1334.85" cy="1019.93" r="19.96"/><circle class="cls-3" cx="1272.79" cy="1019.93" r="20.23"/><circle class="cls-3" cx="1211.01" cy="1019.93" r="21.87"/><circle class="cls-3" cx="1148.96" cy="1019.93" r="16.13"/><circle class="cls-3" cx="1025.12" cy="1019.93" r="3.55"/><circle class="cls-3" cx="963.07" cy="1019.93" r="21.05"/><circle class="cls-3" cx="901.29" cy="1019.93" r="18.59"/><circle class="cls-3" cx="839.23" cy="1019.93" r="23.51"/><circle class="cls-3" cx="777.45" cy="1019.93" r="15.31"/><circle class="cls-3" cx="715.4" cy="1019.93" r="8.47"/><circle class="cls-3" cx="653.62" cy="1019.93" r="21.87"/><circle class="cls-3" cx="591.56" cy="1019.93" r="6.29"/><circle class="cls-3" cx="467.73" cy="1019.93" r="11.48"/><circle class="cls-3" cx="405.68" cy="1019.93" r="20.78"/><circle class="cls-3" cx="343.89" cy="1019.93" r="5.19"/><circle class="cls-3" cx="281.84" cy="1019.93" r="21.6"/><circle class="cls-3" cx="220.06" cy="1019.93" r="6.83"/><circle class="cls-3" cx="158.01" cy="1019.93" r="14.49"/><circle class="cls-3" cx="96.22" cy="1019.93" r="7.11"/><circle class="cls-3" cx="34.17" cy="1019.93" r="5.74"/><circle class="cls-3" cx="2728.19" cy="966.62" r="13.39"/><circle class="cls-3" cx="2666.41" cy="966.62" r="15.58"/><circle class="cls-3" cx="2604.36" cy="966.62" r="18.32"/><circle class="cls-3" cx="2542.58" cy="966.62" r="16.68"/><circle class="cls-3" cx="2480.52" cy="966.62" r="7.65"/><circle class="cls-3" cx="2418.74" cy="966.62" r="9.84"/><circle class="cls-3" cx="2356.69" cy="966.62" r="2.19"/><circle class="cls-3" cx="2294.91" cy="966.62" r="17.5"/><circle class="cls-3" cx="2232.85" cy="966.62" r="6.56"/><circle class="cls-3" cx="2170.8" cy="966.62" r="10.66"/><circle class="cls-3" cx="2109.02" cy="966.62" r="6.56"/><circle class="cls-3" cx="2046.96" cy="966.62" r="1.09"/><circle class="cls-3" cx="1861.35" cy="966.62" r="13.67"/><circle class="cls-3" cx="1799.3" cy="966.62" r="15.58"/><circle class="cls-3" cx="1737.24" cy="966.62" r="6.29"/><circle class="cls-3" cx="1675.46" cy="966.62" r="14.49"/><circle class="cls-3" cx="1551.63" cy="966.62" r="18.04"/><circle class="cls-3" cx="1489.57" cy="966.62" r="18.59"/><circle class="cls-3" cx="1427.79" cy="966.62" r="9.29"/><circle class="cls-3" cx="1303.96" cy="966.62" r="3.55"/><circle class="cls-3" cx="1241.9" cy="966.62" r="1.64"/><circle class="cls-3" cx="1179.85" cy="966.62" r="21.87"/><circle class="cls-3" cx="1118.07" cy="966.62" r="5.19"/><circle class="cls-3" cx="1056.01" cy="966.62" r="18.59"/><circle class="cls-3" cx="994.23" cy="966.62" r="24.33"/><circle class="cls-3" cx="932.18" cy="966.62" r="20.78"/><circle class="cls-3" cx="870.4" cy="966.62" r="23.78"/><circle class="cls-3" cx="808.34" cy="966.62" r="19.68"/><circle class="cls-3" cx="746.29" cy="966.62" r="23.78"/><circle class="cls-3" cx="684.51" cy="966.62" r="17.5"/><circle class="cls-3" cx="622.45" cy="966.62" r="22.14"/><circle class="cls-3" cx="560.67" cy="966.62" r="21.87"/><circle class="cls-3" cx="498.62" cy="966.62" r="23.51"/><circle class="cls-3" cx="436.84" cy="966.62" r="13.12"/><circle class="cls-3" cx="374.78" cy="966.62" r="4.37"/><circle class="cls-3" cx="313" cy="966.62" r="12.57"/><circle class="cls-3" cx="250.95" cy="966.62" r="13.39"/><circle class="cls-3" cx="188.9" cy="966.62" r="23.51"/><circle class="cls-3" cx="127.12" cy="966.62" r="11.48"/><circle class="cls-3" cx="65.06" cy="966.62" r="13.67"/><circle class="cls-3" cx="3.28" cy="966.62" r="17.22"/><circle class="cls-3" cx="2697.3" cy="913.32" r="19.96"/><circle class="cls-3" cx="2635.52" cy="913.32" r="15.86"/><circle class="cls-3" cx="2511.69" cy="913.32" r="10.39"/><circle class="cls-3" cx="2449.63" cy="913.32" r="13.39"/><circle class="cls-3" cx="2387.58" cy="913.32" r="19.68"/><circle class="cls-3" cx="2263.74" cy="913.32" r=".82"/><circle class="cls-3" cx="2201.96" cy="913.32" r="4.1"/><circle class="cls-3" cx="2078.13" cy="913.32" r="15.04"/><circle class="cls-3" cx="2016.07" cy="913.32" r="8.47"/><circle class="cls-3" cx="1892.24" cy="913.32" r="6.29"/><circle class="cls-3" cx="1830.19" cy="913.32" r="5.19"/><circle class="cls-3" cx="1768.4" cy="913.32" r="13.67"/><circle class="cls-3" cx="1706.35" cy="913.32" r="13.94"/><circle class="cls-3" cx="1644.57" cy="913.32" r="14.22"/><circle class="cls-3" cx="1582.52" cy="913.32" r="7.38"/><circle class="cls-3" cx="1520.74" cy="913.32" r="7.93"/><circle class="cls-3" cx="1458.68" cy="913.32" r="14.76"/><circle class="cls-3" cx="1396.63" cy="913.32" r="12.3"/><circle class="cls-3" cx="1334.85" cy="913.32" r="22.69"/><circle class="cls-3" cx="1272.79" cy="913.32" r="19.96"/><circle class="cls-3" cx="1211.01" cy="913.32" r="16.4"/><circle class="cls-3" cx="1148.96" cy="913.32" r="21.32"/><circle class="cls-3" cx="1087.18" cy="913.32" r="17.22"/><circle class="cls-3" cx="1025.12" cy="913.32" r="20.5"/><circle class="cls-3" cx="963.07" cy="913.32" r="17.22"/><circle class="cls-3" cx="901.29" cy="913.32" r="22.69"/><circle class="cls-3" cx="839.23" cy="913.32" r="16.13"/><circle class="cls-3" cx="777.45" cy="913.32" r="5.74"/><circle class="cls-3" cx="715.4" cy="913.32" r="21.87"/><circle class="cls-3" cx="653.62" cy="913.32" r="15.86"/><circle class="cls-3" cx="591.56" cy="913.32" r="18.86"/><circle class="cls-3" cx="529.51" cy="913.32" r="5.47"/><circle class="cls-3" cx="467.73" cy="913.32" r="25.15"/><circle class="cls-3" cx="405.68" cy="913.32" r="3.83"/><circle class="cls-3" cx="343.89" cy="913.32" r="23.24"/><circle class="cls-3" cx="281.84" cy="913.32" r="6.29"/><circle class="cls-3" cx="220.06" cy="913.32" r="17.22"/><circle class="cls-3" cx="96.22" cy="913.32" r="18.59"/><circle class="cls-3" cx="34.17" cy="913.32" r="19.68"/><circle class="cls-3" cx="2728.19" cy="859.74" r="13.12"/><circle class="cls-3" cx="2666.41" cy="859.74" r="12.85"/><circle class="cls-3" cx="2542.58" cy="859.74" r="14.76"/><circle class="cls-3" cx="2480.52" cy="859.74" r="15.58"/><circle class="cls-3" cx="2418.74" cy="859.74" r="17.5"/><circle class="cls-3" cx="2356.69" cy="859.74" r="9.57"/><circle class="cls-3" cx="2294.91" cy="859.74" r="10.11"/><circle class="cls-3" cx="2232.85" cy="859.74" r="6.29"/><circle class="cls-3" cx="2170.8" cy="859.74" r="10.11"/><circle class="cls-3" cx="2046.96" cy="859.74" r="10.39"/><circle class="cls-3" cx="1985.18" cy="859.74" r="15.04"/><circle class="cls-3" cx="1799.3" cy="859.74" r="12.57"/><circle class="cls-3" cx="1675.46" cy="859.74" r="4.37"/><circle class="cls-3" cx="1551.63" cy="859.74" r="2.19"/><circle class="cls-3" cx="1489.57" cy="859.74" r="5.47"/><circle class="cls-3" cx="1427.79" cy="859.74" r="9.84"/><circle class="cls-3" cx="1365.74" cy="859.74" r="15.04"/><circle class="cls-3" cx="1303.96" cy="859.74" r="20.23"/><circle class="cls-3" cx="1241.9" cy="859.74" r="17.5"/><circle class="cls-3" cx="1179.85" cy="859.74" r="11.75"/><circle class="cls-3" cx="1118.07" cy="859.74" r="10.11"/><circle class="cls-3" cx="1056.01" cy="859.74" r="21.87"/><circle class="cls-3" cx="994.23" cy="859.74" r="22.96"/><circle class="cls-3" cx="870.4" cy="859.74" r="23.51"/><circle class="cls-3" cx="808.34" cy="859.74" r="6.56"/><circle class="cls-3" cx="746.29" cy="859.74" r="8.47"/><circle class="cls-3" cx="684.51" cy="859.74" r="16.13"/><circle class="cls-3" cx="622.45" cy="859.74" r="21.87"/><circle class="cls-3" cx="560.67" cy="859.74" r="22.96"/><circle class="cls-3" cx="498.62" cy="859.74" r="17.77"/><circle class="cls-3" cx="436.84" cy="859.74" r="2.19"/><circle class="cls-3" cx="374.78" cy="859.74" r="10.39"/><circle class="cls-3" cx="313" cy="859.74" r="19.41"/><circle class="cls-3" cx="250.95" cy="859.74" r="13.12"/><circle class="cls-3" cx="188.9" cy="859.74" r="8.2"/><circle class="cls-3" cx="127.12" cy="859.74" r="18.86"/><circle class="cls-3" cx="65.06" cy="859.74" r="23.51"/><circle class="cls-3" cx="3.28" cy="859.74" r="22.14"/><circle class="cls-3" cx="2697.3" cy="806.43" r="9.84"/><circle class="cls-3" cx="2635.52" cy="806.43" r="16.4"/><circle class="cls-3" cx="2511.69" cy="806.43" r="19.41"/><circle class="cls-3" cx="2449.63" cy="806.43" r="5.74"/><circle class="cls-3" cx="2387.58" cy="806.43" r="9.29"/><circle class="cls-3" cx="2263.74" cy="806.43" r="7.65"/><circle class="cls-3" cx="2078.13" cy="806.43" r="4.37"/><circle class="cls-3" cx="2016.07" cy="806.43" r="12.57"/><circle class="cls-3" cx="1892.24" cy="806.43" r="16.13"/><circle class="cls-3" cx="1768.4" cy="806.43" r="2.73"/><circle class="cls-3" cx="1582.52" cy="806.43" r="1.64"/><circle class="cls-3" cx="1458.68" cy="806.43" r="9.02"/><circle class="cls-3" cx="1396.63" cy="806.43" r="8.2"/><circle class="cls-3" cx="1334.85" cy="806.43" r="8.75"/><circle class="cls-3" cx="1211.01" cy="806.43" r="22.69"/><circle class="cls-3" cx="1148.96" cy="806.43" r="11.48"/><circle class="cls-3" cx="1087.18" cy="806.43" r="22.69"/><circle class="cls-3" cx="1025.12" cy="806.43" r="22.69"/><circle class="cls-3" cx="963.07" cy="806.43" r="10.39"/><circle class="cls-3" cx="901.29" cy="806.43" r="12.3"/><circle class="cls-3" cx="839.23" cy="806.43" r="2.73"/><circle class="cls-3" cx="777.45" cy="806.43" r="16.95"/><circle class="cls-3" cx="715.4" cy="806.43" r="21.05"/><circle class="cls-3" cx="653.62" cy="806.43" r="22.69"/><circle class="cls-3" cx="591.56" cy="806.43" r="22.42"/><circle class="cls-3" cx="529.51" cy="806.43" r="18.59"/><circle class="cls-3" cx="467.73" cy="806.43" r="17.5"/><circle class="cls-3" cx="405.68" cy="806.43" r="22.42"/><circle class="cls-3" cx="343.89" cy="806.43" r="16.95"/><circle class="cls-3" cx="281.84" cy="806.43" r="4.37"/><circle class="cls-3" cx="220.06" cy="806.43" r="6.56"/><circle class="cls-3" cx="158.01" cy="806.43" r="10.93"/><circle class="cls-3" cx="96.22" cy="806.43" r="23.24"/><circle class="cls-3" cx="34.17" cy="806.43" r="20.78"/><circle class="cls-3" cx="2666.41" cy="753.12" r="13.39"/><circle class="cls-3" cx="2604.36" cy="753.12" r="2.19"/><circle class="cls-3" cx="2542.58" cy="753.12" r="12.3"/><circle class="cls-3" cx="2480.52" cy="753.12" r="3.01"/><circle class="cls-3" cx="2418.74" cy="753.12" r="8.47"/><circle class="cls-3" cx="2356.69" cy="753.12" r="7.11"/><circle class="cls-3" cx="2170.8" cy="753.12" r="5.47"/><circle class="cls-3" cx="2109.02" cy="753.12" r="10.39"/><circle class="cls-3" cx="1799.3" cy="753.12" r="13.12"/><circle class="cls-3" cx="1737.24" cy="753.12" r="4.65"/><circle class="cls-3" cx="1675.46" cy="753.12" r="13.94"/><circle class="cls-3" cx="1489.57" cy="753.12" r="12.57"/><circle class="cls-3" cx="1427.79" cy="753.12" r="9.02"/><circle class="cls-3" cx="1365.74" cy="753.12" r="5.19"/><circle class="cls-3" cx="1241.9" cy="753.12" r="22.42"/><circle class="cls-3" cx="1179.85" cy="753.12" r="21.87"/><circle class="cls-3" cx="1056.01" cy="753.12" r="22.96"/><circle class="cls-3" cx="994.23" cy="753.12" r="11.48"/><circle class="cls-3" cx="932.18" cy="753.12" r="11.48"/><circle class="cls-3" cx="808.34" cy="753.12" r="2.46"/><circle class="cls-3" cx="746.29" cy="753.12" r="6.29"/><circle class="cls-3" cx="684.51" cy="753.12" r="24.06"/><circle class="cls-3" cx="622.45" cy="753.12" r="9.57"/><circle class="cls-3" cx="560.67" cy="753.12" r="4.37"/><circle class="cls-3" cx="498.62" cy="753.12" r="19.96"/><circle class="cls-3" cx="436.84" cy="753.12" r="15.86"/><circle class="cls-3" cx="374.78" cy="753.12" r="24.88"/><circle class="cls-3" cx="313" cy="753.12" r="9.02"/><circle class="cls-3" cx="250.95" cy="753.12" r="20.78"/><circle class="cls-3" cx="188.9" cy="753.12" r="6.29"/><circle class="cls-3" cx="127.12" cy="753.12" r="17.5"/><circle class="cls-3" cx="65.06" cy="753.12" r="19.41"/><circle class="cls-3" cx="3.28" cy="753.12" r="18.86"/><circle class="cls-3" cx="2697.3" cy="699.54" r="16.4"/><circle class="cls-3" cx="2635.52" cy="699.54" r="11.21"/><circle class="cls-3" cx="2573.47" cy="699.54" r="10.39"/><circle class="cls-3" cx="2449.63" cy="699.54" r="13.39"/><circle class="cls-3" cx="2263.74" cy="699.54" r="10.93"/><circle class="cls-3" cx="2201.96" cy="699.54" r="13.94"/><circle class="cls-3" cx="2078.13" cy="699.54" r="4.37"/><circle class="cls-3" cx="2016.07" cy="699.54" r="12.3"/><circle class="cls-3" cx="1954.02" cy="699.54" r="8.47"/><circle class="cls-3" cx="1830.19" cy="699.54" r="12.57"/><circle class="cls-3" cx="1706.35" cy="699.54" r="6.29"/><circle class="cls-3" cx="1644.57" cy="699.54" r="2.19"/><circle class="cls-3" cx="1582.52" cy="699.54" r="10.66"/><circle class="cls-3" cx="1520.74" cy="699.54" r="2.73"/><circle class="cls-3" cx="1458.68" cy="699.54" r="10.93"/><circle class="cls-3" cx="1396.63" cy="699.54" r="13.12"/><circle class="cls-3" cx="1272.79" cy="699.54" r="10.93"/><circle class="cls-3" cx="1148.96" cy="699.54" r="3.28"/><circle class="cls-3" cx="1087.18" cy="699.54" r="22.14"/><circle class="cls-3" cx="963.07" cy="699.54" r="15.86"/><circle class="cls-3" cx="901.29" cy="699.54" r="9.29"/><circle class="cls-3" cx="839.23" cy="699.54" r="18.04"/><circle class="cls-3" cx="777.45" cy="699.54" r="13.94"/><circle class="cls-3" cx="715.4" cy="699.54" r="7.11"/><circle class="cls-3" cx="653.62" cy="699.54" r="3.28"/><circle class="cls-3" cx="591.56" cy="699.54" r="17.5"/><circle class="cls-3" cx="529.51" cy="699.54" r="11.48"/><circle class="cls-3" cx="467.73" cy="699.54" r="12.57"/><circle class="cls-3" cx="405.68" cy="699.54" r="21.32"/><circle class="cls-3" cx="343.89" cy="699.54" r="24.06"/><circle class="cls-3" cx="281.84" cy="699.54" r="14.22"/><circle class="cls-3" cx="220.06" cy="699.54" r="12.03"/><circle class="cls-3" cx="158.01" cy="699.54" r="22.69"/><circle class="cls-3" cx="96.22" cy="699.54" r="20.23"/><circle class="cls-3" cx="34.17" cy="699.54" r="20.23"/><circle class="cls-3" cx="2728.19" cy="646.24" r="16.13"/><circle class="cls-3" cx="2666.41" cy="646.24" r="9.84"/><circle class="cls-3" cx="2604.36" cy="646.24" r="10.39"/><circle class="cls-3" cx="2109.02" cy="646.24" r=".82"/><circle class="cls-3" cx="1985.18" cy="646.24" r="8.47"/><circle class="cls-3" cx="1923.13" cy="646.24" r="8.47"/><circle class="cls-3" cx="1489.57" cy="646.24" r="2.73"/><circle class="cls-3" cx="1365.74" cy="646.24" r="15.31"/><circle class="cls-3" cx="1241.9" cy="646.24" r="4.92"/><circle class="cls-3" cx="1179.85" cy="646.24" r="13.94"/><circle class="cls-3" cx="1118.07" cy="646.24" r="13.12"/><circle class="cls-3" cx="1056.01" cy="646.24" r="18.59"/><circle class="cls-3" cx="994.23" cy="646.24" r="8.75"/><circle class="cls-3" cx="932.18" cy="646.24" r="22.42"/><circle class="cls-3" cx="808.34" cy="646.24" r="21.87"/><circle class="cls-3" cx="746.29" cy="646.24" r="21.87"/><circle class="cls-3" cx="684.51" cy="646.24" r="10.11"/><circle class="cls-3" cx="560.67" cy="646.24" r="12.57"/><circle class="cls-3" cx="498.62" cy="646.24" r="22.42"/><circle class="cls-3" cx="436.84" cy="646.24" r="1.64"/><circle class="cls-3" cx="374.78" cy="646.24" r="23.78"/><circle class="cls-3" cx="313" cy="646.24" r="22.42"/><circle class="cls-3" cx="188.9" cy="646.24" r="10.93"/><circle class="cls-3" cx="65.06" cy="646.24" r="16.95"/><circle class="cls-3" cx="3.28" cy="646.24" r="5.47"/><circle class="cls-3" cx="2697.3" cy="592.93" r="11.48"/><circle class="cls-3" cx="2635.52" cy="592.93" r="6.01"/><circle class="cls-3" cx="2263.74" cy="592.93" r="2.46"/><circle class="cls-3" cx="2139.91" cy="592.93" r="5.47"/><circle class="cls-3" cx="1768.4" cy="592.93" r="1.09"/><circle class="cls-3" cx="1458.68" cy="592.93" r="3.28"/><circle class="cls-3" cx="1396.63" cy="592.93" r="14.76"/><circle class="cls-3" cx="1334.85" cy="592.93" r="13.39"/><circle class="cls-3" cx="1211.01" cy="592.93" r="9.84"/><circle class="cls-3" cx="1148.96" cy="592.93" r="9.02"/><circle class="cls-3" cx="1087.18" cy="592.93" r="11.75"/><circle class="cls-3" cx="963.07" cy="592.93" r="19.68"/><circle class="cls-3" cx="901.29" cy="592.93" r="19.41"/><circle class="cls-3" cx="777.45" cy="592.93" r="16.95"/><circle class="cls-3" cx="715.4" cy="592.93" r="9.29"/><circle class="cls-3" cx="591.56" cy="592.93" r="19.96"/><circle class="cls-3" cx="529.51" cy="592.93" r="6.83"/><circle class="cls-3" cx="405.68" cy="592.93" r="7.93"/><circle class="cls-3" cx="343.89" cy="592.93" r="17.77"/><circle class="cls-3" cx="281.84" cy="592.93" r="24.06"/><circle class="cls-3" cx="220.06" cy="592.93" r="10.39"/><circle class="cls-3" cx="158.01" cy="592.93" r="24.33"/><circle class="cls-3" cx="34.17" cy="592.93" r="16.68"/><circle class="cls-3" cx="2728.19" cy="539.35" r="1.09"/><circle class="cls-3" cx="2666.41" cy="539.35" r="3.55"/><circle class="cls-3" cx="2604.36" cy="539.35" r="1.91"/><circle class="cls-3" cx="2294.91" cy="539.35" r="12.85"/><circle class="cls-3" cx="2170.8" cy="539.35" r="12.03"/><circle class="cls-3" cx="1489.57" cy="539.35" r="11.21"/><circle class="cls-3" cx="1365.74" cy="539.35" r="1.37"/><circle class="cls-3" cx="1303.96" cy="539.35" r="9.84"/><circle class="cls-3" cx="1241.9" cy="539.35" r="10.93"/><circle class="cls-3" cx="1179.85" cy="539.35" r="15.04"/><circle class="cls-3" cx="1118.07" cy="539.35" r="4.1"/><circle class="cls-3" cx="932.18" cy="539.35" r="2.73"/><circle class="cls-3" cx="808.34" cy="539.35" r="21.05"/><circle class="cls-3" cx="746.29" cy="539.35" r="13.12"/><circle class="cls-3" cx="684.51" cy="539.35" r="20.78"/><circle class="cls-3" cx="622.45" cy="539.35" r="19.96"/><circle class="cls-3" cx="560.67" cy="539.35" r="21.05"/><circle class="cls-3" cx="498.62" cy="539.35" r="12.85"/><circle class="cls-3" cx="436.84" cy="539.35" r="12.03"/><circle class="cls-3" cx="313" cy="539.35" r="19.41"/><circle class="cls-3" cx="250.95" cy="539.35" r="19.96"/><circle class="cls-3" cx="188.9" cy="539.35" r="22.14"/><circle class="cls-3" cx="127.12" cy="539.35" r="11.75"/><circle class="cls-3" cx="65.06" cy="539.35" r="11.21"/><circle class="cls-3" cx="3.28" cy="539.35" r="22.69"/><circle class="cls-3" cx="2697.3" cy="486.04" r="8.47"/><circle class="cls-3" cx="2635.52" cy="486.04" r="10.11"/><circle class="cls-3" cx="2573.47" cy="486.04" r="2.73"/><circle class="cls-3" cx="1768.4" cy="486.04" r="7.38"/><circle class="cls-3" cx="1272.79" cy="486.04" r="3.83"/><circle class="cls-3" cx="1211.01" cy="486.04" r="3.01"/><circle class="cls-3" cx="1148.96" cy="486.04" r="6.56"/><circle class="cls-3" cx="1087.18" cy="486.04" r="13.12"/><circle class="cls-3" cx="963.07" cy="486.04" r="2.73"/><circle class="cls-3" cx="901.29" cy="486.04" r="16.68"/><circle class="cls-3" cx="839.23" cy="486.04" r="11.21"/><circle class="cls-3" cx="777.45" cy="486.04" r="16.4"/><circle class="cls-3" cx="715.4" cy="486.04" r="3.55"/><circle class="cls-3" cx="653.62" cy="486.04" r="17.22"/><circle class="cls-3" cx="591.56" cy="486.04" r="6.29"/><circle class="cls-3" cx="529.51" cy="486.04" r="18.04"/><circle class="cls-3" cx="467.73" cy="486.04" r="12.03"/><circle class="cls-3" cx="405.68" cy="486.04" r="7.93"/><circle class="cls-3" cx="343.89" cy="486.04" r="16.95"/><circle class="cls-3" cx="281.84" cy="486.04" r="11.75"/><circle class="cls-3" cx="220.06" cy="486.04" r="3.01"/><circle class="cls-3" cx="96.22" cy="486.04" r="4.37"/><circle class="cls-3" cx="34.17" cy="486.04" r="4.65"/><circle class="cls-3" cx="2728.19" cy="432.74" r="3.83"/><circle class="cls-3" cx="2604.36" cy="432.74" r="1.91"/><circle class="cls-3" cx="1241.9" cy="432.74" r="5.74"/><circle class="cls-3" cx="1179.85" cy="432.74" r="15.86"/><circle class="cls-3" cx="1118.07" cy="432.74" r="14.76"/><circle class="cls-3" cx="1056.01" cy="432.74" r="7.65"/><circle class="cls-3" cx="932.18" cy="432.74" r="4.1"/><circle class="cls-3" cx="870.4" cy="432.74" r="7.11"/><circle class="cls-3" cx="808.34" cy="432.74" r="12.3"/><circle class="cls-3" cx="746.29" cy="432.74" r="11.75"/><circle class="cls-3" cx="684.51" cy="432.74" r="7.11"/><circle class="cls-3" cx="622.45" cy="432.74" r="6.56"/><circle class="cls-3" cx="560.67" cy="432.74" r="21.05"/><circle class="cls-3" cx="498.62" cy="432.74" r="12.03"/><circle class="cls-3" cx="436.84" cy="432.74" r="4.65"/><circle class="cls-3" cx="374.78" cy="432.74" r="18.04"/><circle class="cls-3" cx="313" cy="432.74" r="16.95"/><circle class="cls-3" cx="250.95" cy="432.74" r="20.23"/><circle class="cls-3" cx="188.9" cy="432.74" r="23.24"/><circle class="cls-3" cx="127.12" cy="432.74" r="2.73"/><circle class="cls-3" cx="65.06" cy="432.74" r="13.39"/><circle class="cls-3" cx="3.28" cy="432.74" r="16.95"/><circle class="cls-3" cx="2635.52" cy="379.16" r="4.65"/><circle class="cls-3" cx="2449.63" cy="379.16" r="3.55"/><circle class="cls-3" cx="1458.68" cy="379.16" r="9.57"/><circle class="cls-3" cx="1272.79" cy="379.16" r="8.47"/><circle class="cls-3" cx="1211.01" cy="379.16" r="12.3"/><circle class="cls-3" cx="1087.18" cy="379.16" r="1.37"/><circle class="cls-3" cx="901.29" cy="379.16" r="14.76"/><circle class="cls-3" cx="839.23" cy="379.16" r="3.55"/><circle class="cls-3" cx="343.89" cy="379.16" r="6.01"/><circle class="cls-3" cx="220.06" cy="379.16" r="17.22"/><circle class="cls-3" cx="158.01" cy="379.16" r="9.84"/><circle class="cls-3" cx="2480.52" cy="325.85" r="9.29"/><circle class="cls-3" cx="1179.85" cy="325.85" r="7.93"/><circle class="cls-3" cx="870.4" cy="325.85" r="7.38"/><circle class="cls-3" cx="622.45" cy="325.85" r="11.75"/><circle class="cls-3" cx="560.67" cy="325.85" r="12.03"/><circle class="cls-3" cx="498.62" cy="325.85" r="7.65"/><circle class="cls-3" cx="374.78" cy="325.85" r="9.84"/><circle class="cls-3" cx="127.12" cy="325.85" r="3.83"/><circle class="cls-3" cx="3.28" cy="325.85" r=".82"/><circle class="cls-3" cx="2697.3" cy="272.55" r="9.29"/><circle class="cls-3" cx="963.07" cy="272.55" r="11.21"/><circle class="cls-3" cx="901.29" cy="272.55" r="15.31"/><circle class="cls-3" cx="591.56" cy="272.55" r="11.21"/><circle class="cls-3" cx="529.51" cy="272.55" r="9.29"/><circle class="cls-3" cx="467.73" cy="272.55" r="12.57"/><circle class="cls-3" cx="96.22" cy="272.55" r="12.57"/><circle class="cls-3" cx="2728.19" cy="218.97" r="3.28"/><circle class="cls-3" cx="1179.85" cy="218.97" r="14.49"/><circle class="cls-3" cx="560.67" cy="218.97" r="5.19"/><circle class="cls-3" cx="436.84" cy="218.97" r="13.67"/><circle class="cls-3" cx="374.78" cy="218.97" r="10.11"/><circle class="cls-3" cx="405.68" cy="165.66" r="17.22"/><circle class="cls-3" cx="374.78" cy="112.35" r="3.83"/><circle class="cls-3" cx="3.28" cy="112.35" r="12.03"/></g></g></svg>