<?xml version="1.0" standalone="no"?>
<!DOCTYPE svg PUBLIC "-//W3C//DTD SVG 1.1//EN" "http://www.w3.org/Graphics/SVG/1.1/DTD/svg11.dtd">
<svg xmlns="http://www.w3.org/2000/svg" id="Layer_2" data-name="Layer 2" viewBox="0 0 218.2 146.17" width="218.1999969482422" height="146.1699981689453">
  <defs>
    <style>
      .cls-1 {
        opacity: .8;
        stroke-width: 3.4px;
      }

      .cls-1, .cls-2, .cls-3 {
        fill: none;
        stroke: #6babff;
        stroke-linecap: round;
        stroke-linejoin: round;
      }

      .cls-2 {
        opacity: .4;
      }

      .cls-2, .cls-3 {
        stroke-width: 2.72px;
      }

      .cls-3 {
        opacity: .6;
      }
    </style>
  </defs>
  <g id="Layer_1-2" data-name="Layer 1">
    <g>
      <path class="cls-1" d="M148.88,23.48l-17.9,39.26-41.04,3.66c-2.69.24-3.87,3.52-1.95,5.42l30.14,29.89-7.55,38.97c-.5,2.59,2.19,4.63,4.55,3.44l36.65-18.4,36.65,18.26c2.36,1.17,5.04-.87,4.54-3.45l-7.55-38.78,30.15-29.93c1.92-1.9.74-5.18-1.96-5.42l-41.04-3.66-17.9-39.26c-1.13-2.48-4.65-2.48-5.78,0Z"/>
      <path class="cls-3" d="M116.21,48.63l-14.83-32.53c-.94-2.05-3.85-2.05-4.79,0l-14.83,32.53-34,3.03c-2.23.2-3.21,2.92-1.62,4.49l24.97,24.76-6.26,32.29c-.42,2.15,1.81,3.83,3.77,2.85l30.36-15.25"/>
      <path class="cls-2" d="M72.22,35.43L57.39,2.9c-.94-2.05-3.85-2.05-4.79,0l-14.83,32.53-34,3.03c-2.23.2-3.21,2.92-1.62,4.49l24.97,24.76-6.26,32.29c-.42,2.15,1.81,3.83,3.77,2.85l30.36-15.25"/>
    </g>
  </g>
</svg>